<svg width="198" height="72" viewBox="0 0 198 72" fill="none" xmlns="http://www.w3.org/2000/svg">
<path fill-rule="evenodd" clip-rule="evenodd" d="M113.456 20.5485C115.884 20.5485 117.381 21.9353 118.216 23.1023L118.454 23.4389L118.597 22.989C118.976 21.8339 119.731 21.2013 120.711 21.2013H123.116L123.095 48.0994C123.095 58.3536 117.955 62 113.553 62C111.415 62 109.049 61.0664 107.232 59.5087L106.871 59.1992L107.452 56.7976L107.862 55.1571C108.308 53.3779 108.948 52.9364 110.047 53.4709C110.887 53.9631 112.142 54.5076 113.522 54.5076C116.361 54.5076 117.93 52.3445 117.93 48.4309V47.6157L117.531 48.0994C116.497 49.3628 115.199 49.9818 113.553 49.9818C108.733 49.9818 105.367 43.8847 105.367 35.1561C105.367 26.4206 108.622 20.5485 113.456 20.5485ZM141.857 20.7092C144.524 20.7092 148.493 22.5408 148.493 27.5842V31.4065L145.787 31.3997C145.561 31.3997 144.409 31.2915 144.028 29.24L144.005 29.0894C143.838 28.1846 142.784 27.6451 141.857 27.6451C138.999 27.6451 137.004 31.0547 137.004 35.9256C137.004 41.5694 139.577 44.1012 142.128 44.1012C144.755 44.1012 146.786 40.903 147.036 40.4903L147.061 40.4481L147.342 39.9627L149.485 45.7079L149.343 45.9921C149.318 46.0411 146.654 51.2519 141.752 51.2519C136.103 51.2519 132.008 44.8352 132.008 35.9848C132.008 27.1394 136.147 20.7092 141.857 20.7092ZM28.2744 20.6804C33.7783 20.6804 37.7729 27.0684 37.7729 35.8681C37.7729 44.6661 33.7783 51.0557 28.2744 51.0557C22.7903 51.0557 18.8113 44.6661 18.8113 35.8681C18.8113 27.0684 22.7903 20.6804 28.2744 20.6804ZM48.5794 20.6804C54.077 20.6804 58.08 27.0684 58.08 35.8681C58.08 44.6661 54.077 51.0557 48.5794 51.0557C43.09 51.0557 39.1111 44.6661 39.1111 35.8681C39.1111 27.0684 43.0911 20.6804 48.5794 20.6804ZM159.389 20.6804C164.886 20.6804 168.887 27.0684 168.887 35.8681C168.887 44.6661 164.886 51.0557 159.389 51.0557C153.901 51.0557 149.922 44.6661 149.922 35.8681C149.922 27.0684 153.901 20.6804 159.389 20.6804ZM80.7367 21.2791C82.5696 21.2791 83.4568 22.7336 83.4568 25.7306L83.4464 50.589H83.4359V50.5991H82.2251L81.007 50.6059C80.9747 50.6059 80.9465 50.5991 80.9131 50.5991H78.2984V43.9524H78.3005L78.2858 21.2791H80.7367ZM62.3836 10C63.8136 10 65.1392 10.4685 65.1392 13.9102V31.1139H65.969C66.5911 31.1139 67.0066 30.8653 67.2112 30.3782L70.8477 21.2791H76.7222L71.8821 32.9117C71.6348 33.502 71.3769 34.0111 71.1264 34.4389L70.9511 34.7096L71.1181 34.9937C71.377 35.43 71.6222 35.9814 71.8352 36.6292L73.8059 42.6602L76.7755 50.6092H72.785C71.282 50.6092 70.4845 50.2 69.6808 47.8237L66.8103 39.0578C66.6245 38.5386 66.2206 38.427 65.6277 38.427H65.1392V50.6076H59.9359L59.9296 10.0017H62.3825L62.3836 10ZM97.1034 20.6128C101.335 20.6128 103.571 24.5314 103.571 31.9443L103.579 50.5974H101.118C99.239 50.5974 98.3695 49.1734 98.3695 46.1375V33.365C98.3695 29.8048 97.7401 28.4265 96.1254 28.4265C94.1202 28.4265 92.5138 30.3951 91.9398 33.5629C91.7226 34.6081 91.6172 35.7548 91.6172 37.079V50.5974H86.4483L86.4337 21.2673H88.7656C90.1768 21.2673 91.1141 22.2161 91.3907 23.9395L91.5034 24.6397L91.8197 24.1255C92.7654 22.5188 94.4553 20.6128 97.1034 20.6128ZM191.979 20.7075L192.222 20.7142C196.053 20.8665 198 24.6448 198 31.9426L197.995 50.589H195.671C193.847 50.589 193.035 49.2731 193.035 46.3202V33.2737C193.035 29.5342 192.471 28.1406 190.952 28.1406C188.851 28.1406 187.497 31.19 187.099 34.1683C186.903 35.2237 186.821 36.2824 186.821 37.6947V50.589H181.848V33.2737C181.848 30.0298 181.193 28.352 179.852 28.1457C177.674 27.8108 176.377 31.1613 175.906 34.2783C175.733 35.4469 175.645 36.5683 175.645 37.6947V50.589H170.709L170.73 21.3772H172.902C174.257 21.3772 175.152 22.2702 175.424 23.8972L175.614 25.0253L176.103 24.1661C176.853 22.8808 178.462 20.7092 180.866 20.7092C183.158 20.7092 184.805 22.1434 185.763 24.9661L186.056 25.8253L186.431 25.0574C187.761 22.3345 189.836 20.7109 191.981 20.7109L191.979 20.7075ZM3.15957 10.0169H8.56644C13.3053 10.0169 16.3657 14.1386 16.3657 20.5197C16.3657 24.6904 15.0714 27.1039 14.299 28.1778L13.6351 29.0962L14.3961 29.7896C16.2425 31.4691 17.3396 34.7738 17.3396 38.6435C17.3396 45.8212 13.942 50.4587 8.67395 50.4587L2.49154 50.4604L2.48111 50.4587H0V14.2316C0.0135694 11.9467 1.13983 10.0964 2.54478 10.0169H3.15957ZM28.2744 27.7872C25.6816 27.7872 23.8821 31.1139 23.8821 35.8698C23.8821 40.6223 25.6816 43.9541 28.2744 43.9541C30.9183 43.9541 32.7022 40.7001 32.7022 35.8698C32.7022 31.1139 30.8818 27.7855 28.2744 27.7855V27.7872ZM48.5794 27.7872C45.9876 27.7872 44.1839 31.1139 44.1839 35.8698C44.1839 40.6223 45.9876 43.9541 48.5783 43.9541C51.2233 43.9541 53.0072 40.7001 53.0072 35.8698C53.0072 31.1139 51.1805 27.7855 48.5794 27.7855V27.7872ZM159.389 27.7872C156.797 27.7872 154.991 31.1139 154.991 35.8698C154.991 40.6223 156.797 43.9541 159.388 43.9541C162.032 43.9541 163.819 40.7001 163.819 35.8698C163.819 31.1139 161.99 27.7855 159.388 27.7855L159.389 27.7872ZM9.01945 32.6208H6.15214C5.23047 32.8305 4.81295 33.732 4.81295 35.4723V43.6091L9.0205 43.6175C11.1029 43.6158 12.394 41.5592 12.394 38.0921C12.394 34.7096 11.0674 32.6208 9.01945 32.6208ZM114.197 27.9225C110.895 27.9225 110.637 33.2923 110.637 34.9379C110.637 38.6722 111.644 42.6602 114.468 42.6602C116.091 42.6602 118.026 41.3698 118.026 35.2136C118.026 28.6869 115.84 27.9242 114.197 27.9242V27.9225ZM8.53304 16.6467H6.37969C5.30458 16.7617 4.81295 17.6513 4.81295 19.527V26.3648H8.59984C10.7281 26.3648 11.4859 23.7044 11.4859 21.4246C11.4859 18.4361 10.3806 16.6467 8.53304 16.6467Z" fill="black"/>
<path d="M131.746 47.4714C131.746 49.2545 130.382 50.7 128.7 50.7C127.018 50.7 125.654 49.2545 125.654 47.4714C125.654 45.6883 127.018 44.2428 128.7 44.2428C130.382 44.2428 131.746 45.6883 131.746 47.4714Z" fill="black"/>
<path d="M83.6169 15.1854C83.6169 16.9685 82.2531 18.414 80.5708 18.414C78.8885 18.414 77.5247 16.9685 77.5247 15.1854C77.5247 13.4023 78.8885 11.9568 80.5708 11.9568C82.2531 11.9568 83.6169 13.4023 83.6169 15.1854Z" fill="black"/>
</svg>
