<svg width="198" height="72" viewBox="0 0 198 72" fill="none" xmlns="http://www.w3.org/2000/svg">
<path fill-rule="evenodd" clip-rule="evenodd" d="M38.6659 37.7442C42.6981 37.7442 46.7105 37.7732 50.7253 37.7255C51.6893 37.713 51.9734 36.6293 51.399 35.2156C49.9771 31.7257 47.9846 29.8511 45.4549 29.7369C42.3247 29.5916 39.2118 33.2516 38.6659 37.7442ZM38.4736 45.5252C40.0083 54.1553 46.5702 56.8479 50.3407 50.6011C50.7786 49.8786 51.1483 48.9735 51.7588 48.6455C52.7649 48.1036 53.6781 48.4586 54.3877 49.8122C55.1024 51.1741 55.1582 52.9678 54.425 54.6494C52.9994 57.9026 51.0094 59.9288 48.7327 60.9709C43.8941 63.1882 39.6349 61.2657 36.3471 54.9151C33.0543 48.5562 32.4849 41.1406 34.5692 33.5423C36.6436 25.9875 40.3979 22.1448 45.3569 21.9662C50.8369 21.769 55.7525 28.4227 56.946 37.3705C57.4848 41.4167 55.5354 45.4754 52.956 45.5107C48.5826 45.5709 44.2068 45.5252 39.8322 45.5252H38.4736Z" fill="black"/>
<path fill-rule="evenodd" clip-rule="evenodd" d="M142.926 37.7444C144.82 37.7444 146.714 37.7776 148.61 37.734C149.616 37.707 149.987 36.6939 149.454 35.3632C147.918 31.535 145.752 29.5399 142.985 29.7558C140.168 29.9779 138.134 32.4007 136.799 36.5216C136.425 37.6697 136.781 37.7693 137.361 37.759C139.214 37.7257 141.07 37.7444 142.926 37.7444ZM144.188 45.5254C141.903 45.5254 139.618 45.5794 137.336 45.4964C136.482 45.4694 136.336 45.7829 136.697 47.0991C138.753 54.5583 144.788 56.4641 148.331 50.7238C148.976 49.6775 149.604 48.5461 150.591 48.6582C151.43 48.7537 152.153 49.2748 152.559 50.6844C153.014 52.2705 152.861 53.7383 152.263 55.0545C151.06 57.7056 149.434 59.491 147.594 60.5809C142.903 63.367 138.605 61.9303 135.037 56.2088C131.666 50.8069 130.593 43.9414 131.889 36.4469C133.238 28.643 136.476 23.8432 141.248 22.2613C147.178 20.2973 153.161 26.6521 154.776 36.4282C155.583 41.2965 153.708 45.4839 150.691 45.5213C148.523 45.5483 146.354 45.5254 144.188 45.5254Z" fill="black"/>
<path fill-rule="evenodd" clip-rule="evenodd" d="M20.297 32.3048C18.2461 32.3048 16.1953 32.2882 14.1445 32.3089C12.508 32.3255 11.4758 33.839 11.5068 36.1143C11.5366 38.425 12.5403 39.8242 14.1829 39.8284C17.6271 39.8346 21.0724 39.8055 24.5153 39.8408C25.9172 39.8574 26.1803 40.555 25.7113 42.7244C23.9992 50.6508 19.0563 55.5814 13.9199 54.4832C7.76865 53.1711 3.49701 43.3016 4.56523 32.8674C5.60368 22.7218 11.6296 15.9684 17.6742 18.1337C19.7796 18.8873 21.5302 20.6353 23.1096 23.0269C24.5984 25.2836 26.5785 24.3058 26.9706 21.1938C27.2051 19.3254 26.5376 18.1129 25.787 17.0542C21.0861 10.4045 15.7437 8.48418 9.99566 12.1153C4.20668 15.7712 0.815915 23.0622 0.100046 33.4404C-0.844108 47.1298 5.00319 59.7895 13.0403 61.7285C21.2908 63.7153 29.0115 54.5911 30.5313 41.0657C31.0846 36.1496 29.2249 32.3546 26.2187 32.3089C24.2448 32.2799 22.2709 32.3048 20.297 32.3048Z" fill="black"/>
<path fill-rule="evenodd" clip-rule="evenodd" d="M167.636 22.046C164.946 21.9318 162.501 23.2252 160.357 25.8597C158.27 28.4174 157.405 32.011 157.939 36.2586C158.45 40.3318 159.977 43.012 162.453 43.9421C165.013 44.9033 167.587 45.7711 170.153 46.6824C171.056 47.0022 171.891 47.4444 172.074 49.2733C172.261 51.1563 171.597 52.1445 170.729 52.9189C170.424 53.1888 170.107 53.44 169.781 53.631C166.656 55.4537 164.133 53.6102 161.876 50.0249C160.729 48.2 159.421 48.0921 158.475 49.618C157.565 51.0857 157.585 53.4836 158.522 55.4101C162.292 63.1746 170.503 64.2728 174.946 57.6045C176.802 54.8185 177.586 51.3992 176.928 47.3115C176.277 43.259 174.622 40.8716 172.18 39.9914C169.653 39.0758 167.123 38.1665 164.597 37.2427C163.657 36.9001 162.906 36.0905 162.811 34.3736C162.716 32.6754 163.35 31.7038 164.233 30.9896C167.128 28.6416 170.656 29.6879 172.85 33.6158C174.01 35.6919 175.345 35.9887 176.397 34.4006C177.462 32.7958 177.409 30.2921 176.216 28.2347C173.87 24.1926 171.009 22.1083 167.636 22.046Z" fill="black"/>
<path fill-rule="evenodd" clip-rule="evenodd" d="M184.676 37.4646C184.74 40.3523 184.529 43.6512 185.019 46.9147C186.208 54.868 190.665 61.3806 195.288 61.8228C196.733 61.966 197.729 60.7744 197.906 58.6962C198.1 56.4084 197.377 54.7954 195.927 54.2826C195.662 54.1912 195.396 54.1082 195.131 54.0189C191.744 52.8979 189.226 47.7846 189.212 41.9903C189.205 38.3635 189.241 34.7366 189.195 31.1098C189.179 29.8953 189.332 29.4448 190.125 29.4905C191.942 29.6005 193.763 29.5382 195.582 29.5216C197.042 29.5071 197.989 28.031 198 25.791C198.011 23.5509 197.077 22.0894 195.594 22.0728C193.815 22.052 192.033 21.9897 190.256 22.1018C189.375 22.1558 189.015 21.8049 189.078 20.2147C189.161 18.1511 189.11 16.0709 189.096 13.999C189.077 11.4974 188.22 9.99639 186.855 10.0213C185.543 10.0462 184.707 11.5264 184.677 13.9118C184.664 15.0786 184.697 16.2432 184.671 17.4079C184.638 18.8881 185.032 20.7254 184.499 21.7385C183.999 22.6914 182.896 21.969 182.063 22.0624C180.84 22.2015 179.973 23.6775 179.955 25.7038C179.937 27.7881 180.843 29.424 182.088 29.5195C182.552 29.5527 183.024 29.6109 183.48 29.5071C184.401 29.2932 184.795 29.7209 184.7 31.4336C184.594 33.2959 184.676 35.1851 184.676 37.4646Z" fill="black"/>
<path fill-rule="evenodd" clip-rule="evenodd" d="M94.1093 26.0423C93.8698 25.7724 93.9679 25.4215 93.9294 25.1329C93.6403 22.9967 92.6825 21.8507 91.3835 22.0853C90.2607 22.2805 89.5225 23.7171 89.52 25.8492C89.5101 36.5906 89.5188 47.3342 89.5114 58.0797C89.5114 59.7655 89.9716 60.9218 90.8823 61.5467C92.4207 62.5993 93.9406 60.8201 93.9604 57.8576C93.9976 52.8751 93.984 47.8905 93.9642 42.908C93.9567 41.4029 94.0659 39.9331 94.3177 38.5068C95.1651 33.7174 97.1527 31.0102 99.9914 29.8061C101.519 29.1605 102.165 27.3564 101.821 25.0437C101.512 22.9718 100.351 21.9608 98.9033 22.4486C97.1353 23.0444 95.5745 24.4063 94.1093 26.0423Z" fill="black"/>
<path fill-rule="evenodd" clip-rule="evenodd" d="M20.297 32.3048C22.2709 32.3048 24.2448 32.2799 26.2187 32.3089C29.2249 32.3546 31.0846 36.1496 30.5313 41.0657C29.0115 54.5911 21.2908 63.7153 13.0403 61.7285C5.00319 59.7895 -0.844108 47.1298 0.100046 33.4404C0.815915 23.0622 4.20668 15.7712 9.99566 12.1153C15.7437 8.48418 21.0861 10.4045 25.787 17.0542C26.5376 18.1129 27.2051 19.3254 26.9706 21.1938C26.5785 24.3058 24.5984 25.2836 23.1096 23.0269C21.5302 20.6353 19.7796 18.8873 17.6742 18.1337C11.6296 15.9684 5.60368 22.7218 4.56523 32.8674C3.49701 43.3016 7.76865 53.1711 13.9199 54.4832C19.0563 55.5814 23.9992 50.6508 25.7113 42.7244C26.1803 40.555 25.9172 39.8574 24.5153 39.8408C21.0724 39.8055 17.6271 39.8346 14.1829 39.8284C12.5403 39.8242 11.5366 38.425 11.5068 36.1143C11.4758 33.839 12.508 32.3255 14.1445 32.3089C16.1953 32.2882 18.2461 32.3048 20.297 32.3048Z" fill="black"/>
<path fill-rule="evenodd" clip-rule="evenodd" d="M123.934 41.8517C123.933 35.171 120.697 29.7338 116.717 29.7255C112.771 29.7172 109.448 35.2146 109.423 41.7915C109.396 48.7088 112.664 54.2602 116.723 54.1937C120.78 54.1315 123.938 48.7254 123.934 41.8517ZM109.304 57.7832C109.258 58.0323 109.209 58.2628 109.174 58.4995C108.812 60.9367 107.977 62.0204 106.638 61.7817C105.459 61.5658 104.702 60.0129 104.698 57.6379C104.684 49.9358 104.693 42.2295 104.693 34.5253C104.693 27.7886 104.685 21.0539 104.696 14.3213C104.7 11.9774 105.348 10.4744 106.452 10.0945C107.96 9.57551 109.161 11.2384 109.183 13.9912C109.212 17.9356 109.189 21.8843 109.189 26.2772C112.112 22.5839 115.283 21.3881 118.671 22.2787C122.086 23.1777 124.784 26.1713 126.692 30.9981C129.654 38.4885 129.105 48.8957 125.458 55.4124C121.223 62.9754 115.825 63.7809 109.304 57.7832Z" fill="black"/>
<path fill-rule="evenodd" clip-rule="evenodd" d="M71.7564 54.0706C75.863 54.0831 79.0838 48.8058 79.1037 42.0254C79.121 35.243 75.9102 29.7851 71.8668 29.7249C67.8073 29.6647 64.5034 35.2036 64.5096 42.0524C64.5158 48.7227 67.7329 54.0561 71.7564 54.0706ZM79.2439 26.1582C79.4771 23.4926 80.1297 22.2241 81.3468 22.0726C82.6657 21.9106 83.7302 23.3597 83.7388 25.5852C83.7773 36.5343 83.7847 47.4771 83.7773 58.4262C83.7761 60.1431 82.9882 61.5236 82.0217 61.7956C80.9287 62.1028 79.9808 61.2994 79.5578 59.6469C79.4126 59.0739 79.3431 58.4469 79.2402 57.8428C72.2998 63.9941 66.3992 62.7194 62.393 54.2097C58.8199 46.6239 59.0482 35.9883 62.9712 28.5311C66.1399 22.5085 72.7551 18.452 79.2439 26.1582Z" fill="black"/>
<path fill-rule="evenodd" clip-rule="evenodd" d="M167.636 22.046C171.009 22.1083 173.87 24.1926 176.216 28.2347C177.409 30.2921 177.462 32.7958 176.397 34.4006C175.345 35.9887 174.01 35.6919 172.85 33.6158C170.656 29.6879 167.128 28.6416 164.233 30.9896C163.35 31.7038 162.716 32.6754 162.811 34.3736C162.906 36.0905 163.657 36.9001 164.597 37.2427C167.123 38.1665 169.653 39.0758 172.18 39.9914C174.622 40.8716 176.277 43.259 176.928 47.3115C177.586 51.3992 176.802 54.8185 174.946 57.6045C170.503 64.2728 162.292 63.1746 158.522 55.4101C157.585 53.4836 157.565 51.0857 158.475 49.618C159.421 48.0921 160.729 48.2 161.876 50.0249C164.133 53.6102 166.656 55.4537 169.781 53.631C170.107 53.44 170.424 53.1888 170.729 52.9189C171.597 52.1445 172.261 51.1563 172.074 49.2733C171.891 47.4444 171.056 47.0022 170.153 46.6824C167.587 45.7711 165.013 44.9033 162.453 43.9421C159.977 43.012 158.45 40.3318 157.939 36.2586C157.405 32.011 158.27 28.4174 160.357 25.8597C162.501 23.2252 164.946 21.9318 167.636 22.046Z" fill="black"/>
<path fill-rule="evenodd" clip-rule="evenodd" d="M184.676 37.4646C184.676 35.1851 184.594 33.2959 184.7 31.4336C184.795 29.7209 184.401 29.2932 183.48 29.5071C183.024 29.6109 182.552 29.5527 182.088 29.5195C180.843 29.424 179.937 27.7881 179.955 25.7038C179.973 23.6775 180.84 22.2015 182.063 22.0624C182.896 21.969 183.999 22.6914 184.499 21.7385C185.032 20.7254 184.638 18.8881 184.671 17.4079C184.697 16.2432 184.664 15.0786 184.677 13.9118C184.707 11.5264 185.543 10.0462 186.855 10.0213C188.22 9.99639 189.077 11.4974 189.096 13.999C189.11 16.0709 189.161 18.1511 189.078 20.2147C189.015 21.8049 189.375 22.1558 190.256 22.1018C192.033 21.9897 193.815 22.052 195.594 22.0728C197.077 22.0894 198.011 23.5509 198 25.791C197.989 28.031 197.042 29.5071 195.582 29.5216C193.763 29.5382 191.942 29.6005 190.125 29.4905C189.332 29.4448 189.179 29.8953 189.195 31.1098C189.241 34.7366 189.205 38.3635 189.212 41.9903C189.226 47.7846 191.744 52.8979 195.131 54.0189C195.396 54.1082 195.662 54.1912 195.927 54.2826C197.377 54.7954 198.1 56.4084 197.906 58.6962C197.729 60.7744 196.733 61.966 195.288 61.8228C190.665 61.3806 186.208 54.868 185.019 46.9147C184.529 43.6512 184.74 40.3523 184.676 37.4646Z" fill="black"/>
<path fill-rule="evenodd" clip-rule="evenodd" d="M94.1093 26.0423C95.5745 24.4063 97.1353 23.0444 98.9033 22.4486C100.351 21.9608 101.512 22.9718 101.821 25.0437C102.165 27.3564 101.519 29.1605 99.9914 29.8061C97.1527 31.0102 95.1651 33.7174 94.3177 38.5068C94.0659 39.9331 93.9567 41.4029 93.9642 42.908C93.984 47.8905 93.9976 52.8751 93.9604 57.8576C93.9406 60.8201 92.4207 62.5993 90.8823 61.5467C89.9716 60.9218 89.5114 59.7655 89.5114 58.0797C89.5188 47.3342 89.5101 36.5906 89.52 25.8492C89.5225 23.7171 90.2607 22.2805 91.3835 22.0853C92.6825 21.8507 93.6403 22.9967 93.9294 25.1329C93.9679 25.4215 93.8698 25.7724 94.1093 26.0423Z" fill="black"/>
</svg>
