<svg width="198" height="52" viewBox="0 0 198 52" fill="none" xmlns="http://www.w3.org/2000/svg">
<path fill-rule="evenodd" clip-rule="evenodd" d="M81.8283 23.7798C79.3608 22.3986 76.7678 21.5798 74.238 20.4643C73.2024 20.0075 72.1786 19.4684 71.1697 18.8811C69.9769 18.1866 69.1083 16.9405 69.1192 14.8135C69.13 12.5451 69.7743 10.6776 71.0936 9.64754C72.563 8.49938 74.155 8.63144 75.746 8.89401C78.4289 9.33992 79.5911 11.9019 80.1039 14.784C80.182 15.2237 80.2699 15.6588 80.347 16.0674H86.5272C86.8612 11.268 85.0706 6.76548 82.5912 4.17239C81.0872 2.59852 79.4013 1.81236 77.6077 1.30276C74.575 0.440461 71.6559 0.699925 68.7733 2.4214C65.2346 4.53595 62.3006 9.54189 62.683 16.7386C62.8382 19.6595 63.6139 22.0071 64.8749 24.0222C66.4164 26.4832 68.4334 27.6283 70.4631 28.6024C72.5521 29.6076 74.7123 30.254 76.7955 31.2872C77.9319 31.8496 79.0861 32.6497 80.0338 33.7606C81.7651 35.7897 81.7058 39.3772 80.0515 41.5725C79.263 42.6197 78.3519 43.2443 77.3222 43.4789C75.8893 43.8036 74.4939 44.0164 73.0235 43.5395C70.557 42.7378 68.5233 40.3637 68.132 36.5495C68.0756 35.9948 67.9758 34.9259 67.9758 34.9259C65.8868 34.9259 63.5616 34.9103 61.5782 34.9103C61.5782 34.9103 61.6227 36.1595 61.6395 36.4749C61.9864 42.7952 64.2128 47.0197 67.7574 49.619C69.6607 51.0126 71.7161 51.5704 73.8319 51.6667C76.7955 51.8019 79.6652 51.4181 82.4054 49.3782C86.798 46.1061 88.6785 38.5724 87.2189 31.8247C86.3335 27.7293 84.3107 25.1688 81.8283 23.7798Z" fill="black"/>
<path fill-rule="evenodd" clip-rule="evenodd" d="M52.4891 30.1163C52.1175 35.1331 50.826 39.4663 47.8979 42.193C46.3376 43.6472 44.6221 43.7234 42.9056 43.6006C38.7631 43.2992 36.2017 38.0944 35.4299 32.6627C35.3054 31.7865 35.1345 30.9133 35.089 30.0246C35.0297 28.8671 34.9763 27.7221 34.9763 26.5568C34.9467 23.1978 35.2738 19.9956 36.1819 16.9644C37.8243 11.4784 40.696 9.04222 44.4867 9.3281C48.3219 9.61708 50.8744 14.0917 51.8398 18.6766C52.6343 22.4551 52.7727 26.2865 52.4891 30.1163ZM56.0416 11.1708C53.1225 4.42004 48.9652 1.34687 43.0014 1.3391C41.3363 1.15888 38.9983 2.07244 36.7828 3.75973C34.2777 5.6692 32.4357 8.70974 31.0256 12.4261C29.3753 16.7795 28.7913 21.6161 28.7468 26.563C28.7152 29.978 29.0502 33.393 29.8378 36.665C30.6491 40.0365 31.7786 43.0662 33.4476 45.5318C35.4329 48.4652 37.8055 50.2255 40.4845 51.0583C44.5529 52.3229 48.4148 51.5337 51.9673 48.1342C55.2372 45.0036 57.181 40.2571 58.1603 34.5272C58.857 30.4472 58.9696 26.3082 58.5882 22.1009C58.2295 18.1514 57.4626 14.4583 56.0416 11.1708Z" fill="black"/>
<path fill-rule="evenodd" clip-rule="evenodd" d="M97.9632 42.0009V29.3586H110.908V21.7052H97.9632V10.6182C103.24 10.5607 108.693 10.6384 114.071 10.5747V2.1087H91.5845V50.5445H114.112L114.078 42.0009H97.9632Z" fill="black"/>
<path fill-rule="evenodd" clip-rule="evenodd" d="M15.9247 2.08305C10.9294 1.87019 5.92915 1.98983 0.930872 1.98051H0V10.2072H1.30737C5.52893 10.2072 9.75148 10.173 13.973 10.2367C14.726 10.2476 15.5453 10.4294 16.2162 10.9235C18.4654 12.5828 19.167 16.5975 18.2401 19.8167C17.4525 22.5558 15.9455 23.805 13.98 23.7801C9.7248 23.7227 5.46865 23.7584 1.21349 23.7662H0V50.7426H6.12975C6.12975 50.7426 6.12777 49.3862 6.12876 48.7694C6.13963 43.7915 6.08232 38.8011 6.12975 33.8231C6.12975 33.8231 6.12283 31.2269 6.12975 31.6417C6.12975 31.6417 6.60804 31.6433 6.73452 31.6417C8.39963 31.6262 11.0668 31.6184 12.9068 31.6153C13.8673 35.5368 15.1974 41.0119 16.1253 44.7687C16.6214 46.7761 17.1965 48.8829 17.6679 50.7426H23.7621C22.1839 44.3026 20.5168 37.5069 18.8982 30.9006C19.4437 30.4097 19.6631 30.2683 20.001 29.9731C21.925 28.292 23.2452 25.7207 24.102 22.5403C25.3313 17.9849 25.1228 13.5476 23.5279 9.30142C21.8252 4.76935 19.246 2.22443 15.9247 2.08305Z" fill="black"/>
<path fill-rule="evenodd" clip-rule="evenodd" d="M134.316 24.9877C133.989 24.9877 133.256 25.011 133.256 25.011V29.3411H143.511C143.397 33.9913 142.588 37.9298 140.793 41.3075C138.758 45.1342 136.2 47.5502 132.99 47.8112C131.701 47.9153 130.37 47.6418 129.099 47.2301C125.923 46.2031 123.733 43.0165 122.096 38.7999C121.058 36.1213 120.588 33.174 120.628 30.0309C120.682 25.7102 120.305 21.3645 121.146 17.0997C122.565 9.92486 126.068 4.96553 130.666 4.12034C134.755 3.36991 138.31 5.58234 140.932 10.7872C141.636 12.1855 142.196 13.7578 142.854 15.327H145.423C145.315 14.6791 145.282 14.3155 145.194 13.9862C144.553 11.5842 143.746 9.33602 142.621 7.4048C139.96 2.837 136.756 0.05282 132.718 0.038837C132.009 0.0357296 131.291 -0.0621519 130.592 0.0652494C129.626 0.240815 128.627 0.38686 127.726 0.904234C124.6 2.69872 122.037 5.69421 120.3 10.2309C119.127 13.2932 118.176 16.4922 118.134 20.1729C118.102 22.9788 118.004 25.7847 118.029 28.5876C118.057 31.8145 118.185 35.0291 119.073 38.0417C121.336 45.7153 124.893 50.7849 130.403 51.8119C133.309 52.3526 136.152 51.7715 138.734 49.4969C141.967 46.6506 144.249 42.4821 145.438 36.8966C146.114 33.724 146.174 30.4629 146.149 27.1753C146.149 26.3565 146.156 25.6294 146.169 24.9815C142.668 24.9768 137.547 24.9784 134.316 24.9877Z" fill="black"/>
<path fill-rule="evenodd" clip-rule="evenodd" d="M197.965 46.683C196.125 46.683 183.315 46.6504 181.379 46.6333V1.38403L178.651 1.42598C178.634 2.05367 178.65 36.0201 178.651 50.7412C184.13 50.7443 198 50.7427 198 50.7427L197.965 46.683Z" fill="black"/>
<path fill-rule="evenodd" clip-rule="evenodd" d="M155.941 28.8565C157.716 21.3833 159.567 13.5979 161.346 6.10923C161.446 6.10768 161.711 6.10613 161.811 6.10457C161.811 6.10457 164.753 18.5106 165.355 21.0819C165.943 23.5927 166.604 26.3582 167.184 28.8565H155.941ZM166.984 16.135C166.004 11.9977 164.474 5.51728 163.391 0.80188C162.075 0.80188 160.591 0.804987 159.994 0.804987C156.106 16.6788 151.781 34.3829 147.852 50.7431H150.707C152.04 45.08 154.511 34.7247 154.853 33.373H168.271C169.356 37.9983 171.114 45.2276 172.406 50.7431H175.161C174.35 47.2225 172.99 41.3884 172.448 39.1077C170.625 31.4496 168.8 23.7946 166.984 16.135Z" fill="black"/>
</svg>
