<svg width="198" height="72" viewBox="0 0 198 72" fill="none" xmlns="http://www.w3.org/2000/svg">
<g clip-path="url(#clip0_13_1533)">
<path fill-rule="evenodd" clip-rule="evenodd" d="M102.01 61.7957C108.927 61.7957 113.536 54.5459 113.536 42.3122V11.0145H105.969V41.8203C105.969 47.5167 104.703 50.3377 102.05 50.3377C99.4891 50.3377 98.3927 47.4498 98.3927 41.8203V11.0145H90.786V42.3122C90.7961 54.8171 95.0076 61.7957 102.008 61.7957H102.01ZM124.768 34.0822H123.379V22.2011H125.375C128.729 22.2011 130.339 23.892 130.339 28.0332C130.327 32.5288 128.509 34.0822 124.768 34.0822ZM133.807 13.7524C131.717 11.3689 129.241 11.0145 125.981 11.0145H115.72V61.018H123.284V44.9144H125.459C128.677 44.9144 131.111 44.5582 133.077 42.6666C136.158 39.643 137.988 34.3028 137.988 27.8288C137.988 21.5592 136.557 16.8447 133.807 13.7524ZM179.828 33.169L191.354 61.0199H198V11.0145H190.446V38.7967L179.086 11.0145H172.262V61.0199H179.828V33.169ZM72.9594 49.5601C68.6955 49.5601 64.8286 43.5111 64.8286 35.6356C64.8286 28.3189 68.4345 22.4905 73.0531 22.4905C77.4008 22.4905 81.0167 28.3189 81.0167 35.6374C81.0056 43.7824 77.4007 49.562 72.9594 49.562V49.5601ZM84.046 17.4867C81.0468 12.7053 77.1386 10.1031 73.0007 10.1031C68.6118 10.1031 64.7772 12.5697 61.7357 17.4198C58.6953 22.2681 57.0334 28.6064 57.0334 35.5C57.0334 42.8854 58.5179 49.0701 61.4234 54.0739C64.4627 59.2784 68.3821 61.9476 72.9483 61.9476C77.2535 61.9476 81.3402 59.2115 84.3382 54.1426C87.2549 49.2907 88.8219 42.8854 88.8219 35.7224C88.8331 28.8759 87.1812 22.4724 84.046 17.4867ZM154.905 49.5601C150.642 49.5601 146.775 43.5111 146.775 35.6356C146.775 28.3189 150.391 22.4905 154.999 22.4905C159.346 22.4905 162.962 28.3189 162.962 35.6374C162.951 43.7824 159.336 49.562 154.905 49.562V49.5601ZM165.992 17.4867C162.994 12.7053 159.074 10.1031 154.948 10.1031C150.548 10.1031 146.724 12.5697 143.683 17.4198C140.641 22.2681 138.98 28.6064 138.98 35.5C138.98 42.8854 140.464 49.0701 143.368 54.0739C146.421 59.2784 150.328 61.9476 154.895 61.9476C159.2 61.9476 163.286 59.2115 166.285 54.1426C169.201 49.2907 170.769 42.8854 170.769 35.7224C170.78 28.8759 169.126 22.4724 165.992 17.4867ZM4.3778 54.0558C7.41824 59.2603 11.2963 62 15.8625 62C21.1281 62 26.0825 57.7738 29.0393 50.8115C30.8261 46.5854 31.6938 41.804 31.6938 36.1781C31.6938 35.1293 31.6514 33.9972 31.6101 32.8634H13.9921V42.8511H22.8223C21.2954 47.2129 18.7357 49.6108 15.8625 49.6108C11.5986 49.6108 7.77404 43.4948 7.77404 35.5343C7.77404 28.3533 11.3376 22.3874 15.8625 22.3874C18.2973 22.3874 20.2927 24.0113 22.2156 27.2393H30.8261C28.35 16.5409 22.5613 10 15.9562 10C11.5673 10 7.74169 12.5353 4.69122 17.3854C1.65078 22.2373 6.28505e-05 28.5739 6.28505e-05 35.4674C-0.0110906 42.8691 1.46228 49.0538 4.3778 54.0576V54.0558ZM42.6454 34.0822H41.1709V22.2011H43.2611C46.6049 22.2011 48.2143 23.892 48.2143 28.0332C48.2143 32.5288 46.3852 34.0822 42.6454 34.0822ZM48.8623 43.8493C53.2512 41.8727 55.8645 35.8382 55.8645 27.7456C55.8645 21.561 54.4313 16.8447 51.6842 13.7524C49.594 11.3689 47.1179 11.0145 43.8567 11.0145H33.5955V61.018H41.1609V44.9144L47.0756 61.018H56.4278L48.8623 43.8493Z" fill="black"/>
</g>
<defs>
<clipPath id="clip0_13_1533">
<rect width="198" height="72" fill="white"/>
</clipPath>
</defs>
</svg>
