<svg width="198" height="72" viewBox="0 0 198 72" fill="none" xmlns="http://www.w3.org/2000/svg">
<path fill-rule="evenodd" clip-rule="evenodd" d="M72.2016 32.8803C72.3993 29.427 76.1314 26.7521 80.5341 26.9085L80.6529 26.9132C84.5662 26.7254 87.9324 29.0608 88.1712 32.1285C88.1912 32.3788 88.1889 32.63 88.1653 32.8803H72.2016ZM80.64 21.4981C70.0744 21.4981 65.4481 27.0539 63.9703 31.754C63.5644 33.0211 63.3609 34.3231 63.3632 35.6306C63.3068 38.7259 64.4951 41.7569 66.76 44.2928C70.1909 47.7526 75.4654 49.7778 81.0541 49.7824C86.7581 49.9453 90.5691 49.1871 93.4834 47.8887C94.0658 47.5924 94.3423 47.0394 94.1741 46.5131V42.9062C94.1741 42.171 93.6081 41.8241 92.7928 42.2676C89.3807 43.9818 85.3345 44.7455 81.3024 44.4336C76.5514 44.3848 72.5934 41.5646 72.0781 37.861H95.5542C96.0836 37.861 96.5143 37.5279 96.5225 37.1129C96.9355 32.0779 95.0706 21.4981 80.64 21.4981ZM23.7411 44.8449H13.4249C12.1013 44.8155 10.8235 44.463 9.76581 43.8373C8.66218 43.23 8.01507 42.2326 8.03977 41.1744C8.03977 39.7114 9.29635 36.789 15.5792 36.789H23.7423L23.7411 44.8449ZM31.4064 32.837C31.4064 29.1445 30.3581 26.339 28.0909 24.4012C25.8272 22.4633 21.2691 21.499 17.0429 21.499C12.8025 21.4861 8.63159 22.3566 4.95952 24.0221C4.72656 24.1306 4.58302 24.3285 4.58772 24.5419L4.90539 28.6136C4.99246 29.0083 5.4725 29.2724 5.97607 29.2025C6.14197 29.1804 6.29728 29.1224 6.42317 29.0359C11.6024 26.535 17.8171 26.0685 20.9797 27.3245C22.7528 28.125 23.8152 29.6303 23.7423 31.2351V31.8295H15.1098C11.3954 31.8295 0.0155742 32.9125 0.0155742 41.1091V41.1965C-0.163264 43.726 1.20626 46.1717 3.70294 47.7792C6.39258 49.2653 9.64462 49.994 12.9272 49.8477H30.3993C30.9629 49.8477 31.4206 49.4889 31.4206 49.0472V32.8039L31.4064 32.837ZM118.162 44.3692C113.895 44.3692 110.814 41.9216 109.517 38.8787C108.599 36.7725 108.599 34.4878 109.517 32.3816C110.814 29.3386 113.895 26.892 118.162 26.892C127.704 26.892 128.022 34.5255 128.022 35.6306C128.022 36.7348 127.704 44.3692 118.162 44.3692ZM135.853 35.6407C135.928 32.5435 134.737 29.508 132.456 26.9785C126.331 20.7887 114.966 19.6633 107.072 24.4665C105.874 25.1952 104.798 26.039 103.868 26.9785C99.2733 32.192 99.2733 39.0903 103.868 44.3039C107.243 47.817 112.553 49.856 118.163 49.7943C121.783 49.8036 125.328 48.9662 128.34 47.39V50.812C128.34 55.4569 123.161 56.3016 119.846 56.4635C117.565 56.5234 115.283 56.4258 113.024 56.1719C112.113 56.0633 111.478 56.1719 111.478 56.9402V61.0551C111.501 61.4443 111.92 61.7452 112.416 61.7268C120.108 62.2466 125.288 62.1381 129.183 60.3953C131.91 59.1301 133.936 57.1095 134.859 54.7318C135.547 52.8971 135.878 50.9915 135.839 49.0794V35.6407H135.853ZM161.279 23.09V26.339C161.356 26.8018 160.942 27.2269 160.353 27.2895C160.2 27.3051 160.043 27.295 159.896 27.26C153.184 26.177 149.055 28.516 149.055 33.379V49.0794C149.055 49.5211 148.596 49.8799 148.034 49.8799H142.095C141.53 49.8799 141.073 49.5211 141.073 49.0794V33.0422C141.002 29.9745 142.591 27.0263 145.45 24.9321C148.354 22.7063 152.259 21.4687 156.319 21.488C157.71 21.4907 159.096 21.592 160.462 21.7916C161.167 21.9757 161.277 22.3005 161.277 23.135V23.0909L161.279 23.09ZM44.8287 49.0803C44.8287 49.522 44.3699 49.8808 43.8063 49.8808H37.8682C37.3034 49.8808 36.8457 49.522 36.8457 49.0803V10.8024C36.8457 10.3635 37.2952 10.0055 37.854 10H43.7922C44.3569 10 44.8158 10.3589 44.8158 10.8024V49.0803H44.8287ZM58.777 49.0803C58.777 49.522 58.3181 49.8808 57.7557 49.8808H51.8164C51.2516 49.8808 50.7939 49.522 50.7939 49.0803V10.8024C50.7939 10.3589 51.2528 10 51.8164 10H57.7557C58.3193 10 58.777 10.3589 58.777 10.8024V49.0803ZM188.938 38.9017C187.64 41.9446 184.559 44.3149 180.293 44.3913C176.024 44.4676 172.945 41.9437 171.661 38.9017C170.743 36.7946 170.743 34.5098 171.661 32.4046C172.959 29.3617 176.039 26.9895 180.293 26.9141C184.546 26.8386 187.64 29.3617 188.938 32.4046C189.852 34.5071 189.852 36.7881 188.938 38.8907V38.9017ZM194.6 26.9895C188.475 20.8006 177.11 19.6762 169.216 24.4775C168.019 25.2072 166.943 26.051 166.013 26.9895C163.746 29.5264 162.557 32.5564 162.615 35.6527C162.557 38.749 163.746 41.7799 166.013 44.3149C172.138 50.5047 183.503 51.63 191.396 46.8269C192.594 46.0991 193.671 45.2553 194.6 44.3149C196.865 41.7799 198.055 38.748 197.998 35.6527C198.055 32.5573 196.865 29.5264 194.6 26.9895Z" fill="black"/>
</svg>
