<svg width="198" height="72" viewBox="0 0 198 72" fill="none" xmlns="http://www.w3.org/2000/svg">
<path fill-rule="evenodd" clip-rule="evenodd" d="M168.308 27.4597C168.211 27.2302 168.065 27.0929 167.91 27.0929H165.208C164.962 27.0929 164.747 27.431 164.698 27.9044L164.488 29.9127C163.888 28.8553 163.29 28.179 162.432 27.5253L162.164 27.2937C162.131 27.2712 162.098 27.2445 162.064 27.2322C159.131 25.9678 156.183 27.7036 153.77 32.1177C152.565 34.296 151.651 36.8207 151.045 39.5381L154.594 11.2255C154.625 11 154.598 10.7541 154.524 10.5697C154.451 10.3853 154.337 10.2767 154.217 10.2767H150.929C150.814 10.2767 150.71 10.3689 150.636 10.5369L136.327 42.2636C136.828 37.5093 139.64 11.1988 139.64 11.1988C139.64 11.1476 139.648 11.0902 139.648 11.041C139.648 10.8709 139.62 10.6947 139.56 10.5594C139.487 10.3812 139.374 10.2767 139.258 10.2767H135.626C135.511 10.2767 135.403 10.375 135.33 10.5369L117.182 51.7066C116.877 45.7125 115.427 39.1856 115.427 39.1856C112.995 29.3963 107.583 26.2261 104.514 31.839L104.493 31.8492L104.011 32.5357C106.237 25.5559 111.886 25.8674 115.521 34.085C115.521 34.085 117.138 37.9007 118.283 43.5771C118.589 41.573 118.777 39.495 118.834 37.372C116.94 32.341 114.806 29.386 114.806 29.386C110.213 23.2997 104.715 25.8695 103.486 33.7448L103.469 33.7776L103.232 34.8432C103.382 26.6052 108.35 21.3345 113.589 24.8776C113.589 24.8776 116.055 26.6564 118.545 30.5951C118.511 30.2815 118.477 29.968 118.433 29.6524C118.165 27.5724 117.773 25.599 117.271 23.7608C114.367 21.2914 111.793 20.8324 111.793 20.8324C106.263 20.0783 102.159 27.6933 103.1 35.7223L103.092 35.7654L103.155 36.9273C101.19 29.6442 104.15 20.2053 109.586 18.1212C109.586 18.1212 112.112 17.2605 115.217 18.1684C114.43 16.5351 113.531 15.1047 112.534 13.8956C109.421 14.6129 107.098 16.7298 107.098 16.7298C102.121 21.5005 100.503 32.1341 103.362 38.1691L103.365 38.204L103.716 39.1528C100.162 34.7756 100.323 23.687 104.503 16.5433C104.503 16.5433 106.456 13.3464 109.363 11.08C108.164 10.375 106.92 10.0143 105.667 10C103.237 13.6313 101.82 17.5761 101.82 17.5761C98.7216 26.6031 100.03 37.3986 104.037 39.8168L104.053 39.8413L104.597 40.3188C100.406 40.0237 97.7225 30.261 99.525 19.9697C99.525 19.9697 100.355 15.531 102.187 10.8648C101.138 11.3996 100.146 12.1804 99.216 13.16C98.0327 18.7032 97.811 23.5292 97.811 23.5292C97.426 34.3903 101.306 42.4542 105.393 40.6119L105.412 40.6221L106.005 40.493C102.298 44.3579 97.4894 38.5421 96.4342 27.8552C96.4342 27.8552 96.0106 23.0804 96.4342 17.1314C95.5506 18.7749 94.7774 20.6623 94.1374 22.771C94.5339 28.6319 95.5475 32.9394 95.5475 32.9394C97.9775 42.7247 103.389 45.899 106.458 40.2819L106.481 40.2737L106.962 39.5893C104.737 46.567 99.0869 46.2555 95.4539 38.038C95.4539 38.038 93.591 33.4661 92.617 28.1401C92.619 27.8901 92.5805 27.6503 92.5004 27.4597C92.4005 27.2302 92.2548 27.0929 92.0966 27.0929H89.3981C89.1504 27.0929 88.9371 27.431 88.885 27.9044C88.885 27.9044 88.6779 28.5233 88.5832 29.7405C87.9838 28.6872 87.273 28.0765 86.6247 27.5253L86.3499 27.2937C86.3187 27.2712 86.2844 27.2445 86.2532 27.2322C83.3205 25.9678 80.3733 27.7036 77.9589 32.1177C76.5321 34.6977 75.5081 37.7572 74.9263 41.0627L74.8764 41.2799L76.0242 28.2876C76.0492 27.9946 76.0076 27.6872 75.9077 27.4556C75.8067 27.2261 75.66 27.0908 75.5081 27.0929L72.6274 27.1011C72.3756 27.1031 72.1591 27.4556 72.1144 27.9474L69.138 59.8257C69.112 60.1249 69.1547 60.4344 69.2525 60.67C69.3514 60.8975 69.4991 61.0307 69.6532 61.0307L72.6888 61.045C72.9448 61.045 73.1624 60.6844 73.204 60.1926L74.3508 47.2207C74.3633 47.3027 74.3737 47.356 74.3737 47.356C74.3633 48.645 74.4174 49.9524 74.5402 51.2578C74.9867 56.133 77.1867 60.6803 79.5584 61.6065C81.6273 62.3422 83.8398 61.3115 86.0232 58.6638C85.9805 59.1269 85.9118 59.8257 85.9118 59.8257C85.9056 59.8872 85.9035 59.9487 85.9035 60.0143C85.9035 60.252 85.9451 60.4856 86.0232 60.67C86.121 60.9016 86.2688 61.0307 86.4269 61.0307L89.1057 61.045C89.3575 61.045 89.574 60.6967 89.6198 60.2089L91.978 35.1198C93.7419 39.2348 96.0491 42.7492 96.0491 42.7492C100.642 48.8396 106.138 46.2678 107.367 38.3966L107.385 38.3618L107.624 37.2921C107.474 45.528 102.503 50.8069 97.2647 47.2576C97.2647 47.2576 95.0053 45.6264 92.6253 42.0279C92.6451 42.198 92.6627 42.3742 92.6846 42.5484C92.9677 44.7022 93.3766 46.7474 93.9064 48.645C96.6746 50.8848 99.063 51.309 99.063 51.309C104.589 52.0672 108.695 44.446 107.756 36.415L107.763 36.374L107.698 35.208C109.664 42.491 106.704 51.9443 101.264 54.014C101.264 54.014 98.8881 54.8337 95.9076 54.0407C96.6215 55.5161 97.4249 56.84 98.3126 57.9753C101.401 57.2396 103.689 55.1493 103.689 55.1493C108.668 50.3807 110.288 39.745 107.429 33.7161L107.423 33.671L107.073 32.7284C110.628 37.1035 110.469 48.1921 106.288 55.3379C106.288 55.3379 104.294 58.59 101.347 60.8606C102.159 61.3996 102.996 61.7807 103.842 62H105.047C107.523 58.3318 108.967 54.303 108.967 54.303C112.068 45.276 110.761 34.4764 106.751 32.0644L106.735 32.0316L106.193 31.5603C110.385 31.8574 113.07 41.6181 111.266 51.9135C111.266 51.9135 110.365 56.7293 108.368 61.6127C108.528 61.543 108.682 61.4774 108.841 61.3955C109.855 60.8914 110.808 60.1516 111.694 59.254C112.932 53.5919 113.161 48.5876 113.161 48.5876C113.549 37.7347 109.669 29.6647 105.578 31.5111L105.561 31.5029L104.969 31.6259C108.674 27.765 113.486 33.5808 114.543 44.2677C114.543 44.2677 115.153 49.1737 114.696 54.9854C114.609 55.8256 114.43 57.0408 114.084 58.34C113.98 58.7007 113.85 59.1269 113.692 59.6229L113.696 59.6085C113.694 59.6229 113.688 59.6331 113.684 59.6495C113.679 59.6638 113.679 59.6659 113.679 59.6782C113.617 59.8852 113.604 60.1454 113.659 60.3749C113.719 60.6495 113.858 60.8237 114.013 60.8176H115.698C116.585 60.8094 117.346 60.7991 118.358 60.8688C118.479 60.8729 118.595 60.7705 118.672 60.5963L133.324 26.181C132.706 32.4599 130.953 48.604 129.698 59.9384C129.695 59.9938 129.691 60.0491 129.691 60.1024C129.691 60.2766 129.721 60.4467 129.775 60.5819C129.851 60.7663 129.962 60.8688 130.085 60.8688L133.049 60.8176C133.161 60.8176 133.268 60.7233 133.341 60.5512C133.341 60.5512 146.484 30.3512 148.166 26.4925C147.465 32.796 145.546 48.7187 144.179 59.9221C144.168 59.9835 144.164 60.0368 144.164 60.1003C144.164 60.2663 144.193 60.4364 144.25 60.5737C144.324 60.7602 144.436 60.8688 144.558 60.8688H148.063C148.242 60.8688 148.401 60.6291 148.444 60.2807L149.961 48.188L150.172 46.4871C150.179 46.9728 150.183 47.356 150.183 47.356C150.175 48.645 150.229 49.9524 150.352 51.2578C150.794 56.133 153 60.6803 155.367 61.6065C157.435 62.3422 159.651 61.3115 161.833 58.6638L161.722 59.8257C161.716 59.8872 161.712 59.9487 161.712 60.0143C161.712 60.252 161.754 60.4856 161.831 60.67C161.933 60.9016 162.081 61.0307 162.233 61.0307L164.913 61.045C165.168 61.045 165.383 60.6967 165.429 60.2089L167.849 34.9477L168.429 28.1401C168.431 27.8901 168.392 27.6503 168.308 27.4597ZM0 60.377V59.7417C0.016651 59.6761 0.036424 59.6126 0.0624412 59.5573L21.7129 10.5369C21.7878 10.373 21.894 10.2746 22.0095 10.2746H25.5041C25.6186 10.2746 25.7289 10.3791 25.8059 10.5574C25.8611 10.6927 25.8933 10.873 25.8933 11.039C25.8933 11.0882 25.8881 11.1455 25.8829 11.1968C25.8829 11.1968 23.1719 37.5052 22.6672 42.2636C24.377 38.4724 36.9787 10.5369 36.9787 10.5369C37.0516 10.3689 37.1598 10.2767 37.268 10.2767H40.5587C40.6794 10.2767 40.7939 10.3853 40.8678 10.5697C40.9406 10.7541 40.9677 11 40.9364 11.2255L37.4835 38.7675C37.5126 38.6651 37.5365 38.5647 37.5636 38.4704C39.2068 32.1915 42.3299 27.7773 45.709 26.9658C45.7194 26.9597 45.733 26.9597 45.7465 26.9597C48.803 26.6564 51.1622 28.927 52.5765 33.5173L52.5994 33.5911C53.1073 35.5953 53.4861 38.2901 53.5537 41.0627C54.1313 37.7572 55.1564 34.6977 56.5821 32.1177C58.9965 27.7036 61.9417 25.9678 64.8774 27.2322C64.9076 27.2445 64.944 27.2712 64.9742 27.2937L65.2469 27.5253C65.8984 28.0765 66.6071 28.6872 67.2065 29.7405C67.5239 26.808 68.4553 18.1048 68.4553 18.1048C68.5074 17.6335 68.7197 17.2933 68.9653 17.2933H71.6658C71.822 17.2933 71.9676 17.4306 72.0676 17.6581C72.1664 17.8917 72.208 18.2032 72.182 18.5024L68.243 60.2089C68.1962 60.6967 67.9818 61.045 67.73 61.045L65.0502 61.0307C64.8941 61.0307 64.7442 60.9016 64.6454 60.67C64.5673 60.4856 64.5247 60.252 64.5247 60.0143C64.5247 59.9507 64.5288 59.8852 64.5351 59.8257C64.5351 59.8257 64.6027 59.1269 64.6454 58.6638C62.462 61.3115 60.2526 62.3422 58.1817 61.6045C55.812 60.6803 53.6089 56.133 53.1635 51.2578C53.0428 49.9524 52.9886 48.645 52.9949 47.356C52.9012 47.5199 52.7774 47.6224 52.6452 47.6224L40.209 47.6326C40.1976 47.7351 40.1882 47.8232 40.1882 47.9298C40.1882 48.3027 40.2548 48.7905 40.3401 49.3438L40.3932 49.7024C40.9833 52.5509 42.3997 54.3378 44.0065 54.262C45.6039 54.1903 47.0838 52.6882 48.3992 49.8008C48.496 49.5815 48.6386 49.4585 48.7853 49.4585H51.5577C51.7367 49.4585 51.9053 49.6389 51.9979 49.938C52.0947 50.2352 52.1072 50.6082 52.0323 50.9258C50.4577 57.4261 46.9287 61.791 43.2249 61.791C40.6471 61.5942 38.4846 59.131 37.2805 55.012C36.6811 52.8173 36.397 50.0938 36.4136 47.3027L34.787 60.2807C34.7433 60.6291 34.5841 60.8688 34.4051 60.8688H30.898C30.7793 60.8688 30.6659 60.7602 30.5941 60.5737C30.5358 60.4364 30.5067 60.2663 30.5067 60.1024C30.5067 60.0368 30.5119 59.9815 30.5171 59.9221C31.8877 48.7187 33.8077 32.796 34.505 26.4945L19.6825 60.5532C19.6097 60.7233 19.5035 60.8176 19.3901 60.8176L16.4272 60.8688C16.3076 60.8688 16.1972 60.7663 16.1213 60.5819C16.0651 60.4467 16.0339 60.2745 16.0339 60.1003C16.0339 60.0491 16.0339 59.9938 16.0411 59.9384C17.2952 48.604 19.0487 32.4579 19.6659 26.181L5.01299 60.5963C4.93702 60.7705 4.8215 60.8729 4.70078 60.8688C3.68923 60.7991 2.92745 60.8073 2.04079 60.8176H0.353833C0.202934 60.8237 0.0645226 60.6495 0 60.377ZM163.489 44.8764C162.882 49.0405 160.877 53.0058 158.915 53.9403C157.414 54.3296 156.315 54.053 155.554 53.0796C154.745 51.9894 154.339 50.0979 154.026 48.3929C153.974 47.7822 153.943 47.1674 153.943 46.567C153.943 42.7738 154.977 39.118 156.879 36.3166C157.969 34.8166 159.456 34.2469 160.757 34.8329C161.491 35.167 162.498 36.0236 163.125 38.2552C163.473 39.4663 163.661 41.0012 163.661 42.4972C163.661 43.3251 163.603 44.1366 163.489 44.8764ZM41.3787 40.0914L49.4368 39.9418C49.3743 38.8085 49.0705 37.749 48.4336 36.4949C47.7311 35.3125 46.7685 34.7571 45.4 34.7428C43.918 35.1485 42.1874 37.0625 41.3787 40.0914ZM66.3032 44.8764C66.4177 44.1366 66.4728 43.3251 66.4728 42.4992C66.4728 41.0012 66.2876 39.4663 65.9379 38.2573C65.3062 36.0236 64.304 35.167 63.5672 34.835C62.2684 34.2469 60.7813 34.8145 59.6875 36.3166C57.7904 39.118 56.7549 42.7718 56.7549 46.567C56.7549 47.1674 56.784 47.7822 56.8381 48.3929C57.1514 50.0979 57.5562 51.9894 58.3638 53.0796C59.1297 54.053 60.2308 54.3296 61.7262 53.9403C63.6869 53.0058 65.6923 49.0405 66.3032 44.8764ZM72.8678 18.1048L72.2382 24.81C72.2091 25.1092 72.2517 25.4227 72.3506 25.6646C72.4495 25.8941 72.5962 26.0293 72.7544 26.0293H75.7932C76.043 26.0293 76.2615 25.6809 76.3063 25.1891L76.8776 18.5434C76.9015 18.2462 76.8609 17.9347 76.7642 17.7032C76.6653 17.4716 76.5186 17.3343 76.3687 17.3323L73.3809 17.281C73.1311 17.2769 72.9157 17.6274 72.8678 18.1048ZM87.6799 44.8764C87.0711 49.0405 85.0636 53.0058 83.1051 53.9403C81.6065 54.3296 80.5075 54.053 79.7416 53.0796C78.934 51.9894 78.5302 50.0979 78.217 48.3929C78.1628 47.7822 78.1337 47.1674 78.1337 46.567C78.1337 42.7738 79.1671 39.118 81.0685 36.3166C82.1612 34.8166 83.6442 34.2469 84.9471 34.8329C85.6818 35.167 86.6861 36.0236 87.3147 38.2552C87.6654 39.4663 87.8527 41.0012 87.8527 42.4972C87.8527 43.3251 87.7934 44.1366 87.6799 44.8764ZM187.561 58.0757L182.555 42.2882C182.961 41.3475 187.221 31.1525 188.085 29.1544L187.702 33.1075C187.673 33.4087 187.716 33.7182 187.816 33.9497C187.914 34.1813 188.059 34.3206 188.217 34.3206H189.543C189.392 36.124 188.004 52.7373 187.561 58.0757ZM172.989 29.0417L173.048 28.304C173.079 28.0069 173.035 27.6974 172.939 27.4638C172.838 27.2322 172.694 27.0949 172.54 27.0949H169.836C169.586 27.0888 169.368 27.4351 169.32 27.9228L169.244 28.7262L166.355 59.7397C166.33 60.0389 166.376 60.3524 166.478 60.584C166.58 60.8135 166.735 60.9508 166.891 60.9426L168.225 60.9036H169.479C169.729 60.9036 169.937 60.5614 169.986 60.088L171.968 40.8414C172.623 35.9641 174.268 34.5112 175.723 34.0891C175.801 34.0686 176.095 34.0768 176.157 33.9989C175.16 45.6674 173.98 59.4835 173.958 59.7171C173.933 60.0081 173.977 60.3114 174.076 60.543C174.173 60.7704 174.321 60.9036 174.47 60.9036H177.381C177.609 60.9036 177.812 60.6167 177.876 60.1864C177.97 59.6249 178.666 51.6943 179.083 46.9297C180.162 50.1409 183.605 60.4344 183.605 60.4344C183.702 60.7213 183.865 60.8934 184.039 60.8934L187.519 60.9036C187.583 60.9036 187.64 60.875 187.699 60.8381C187.773 60.9036 187.855 60.9487 187.937 60.9426L190.874 60.9036C191.128 60.8996 191.342 60.543 191.383 60.0635L193.652 34.3329L197.024 34.3227C197.277 34.3227 197.492 33.9641 197.537 33.4763L197.991 28.2835C197.997 28.2261 198 28.1728 198 28.1093C198 27.8757 197.956 27.6421 197.879 27.4577C197.78 27.2281 197.636 27.0949 197.479 27.0949H194.156C194.318 25.2588 194.909 18.488 194.909 18.488C194.913 18.4307 194.916 18.3733 194.916 18.3159C194.916 18.072 194.875 17.8384 194.795 17.6581C194.698 17.4224 194.549 17.2954 194.398 17.2954H191.477C191.225 17.2954 191.009 17.6519 190.965 18.1397C190.965 18.1397 190.316 25.7076 190.195 27.0949C189.931 27.1113 189.659 27.1216 189.659 27.1216L189.203 27.1277L188.719 27.1113C188.534 27.1031 188.368 27.2896 188.272 27.5827C188.178 27.304 188.02 27.1216 187.843 27.1216L185.169 27.1113H184.388C184.242 27.1113 184.105 27.2322 184.004 27.4392C184.004 27.4392 181.315 33.4927 179.887 36.5318C180.304 31.716 181.456 18.5044 181.456 18.5044C181.46 18.443 181.463 18.3876 181.463 18.3261C181.463 18.0884 181.419 17.8548 181.339 17.6745C181.242 17.4388 181.096 17.3077 180.943 17.3077L178.034 17.2954C177.778 17.2913 177.559 17.6499 177.518 18.1376C177.451 18.9266 177.149 22.4411 176.744 27.1277L176.73 27.0867C176.628 26.8511 176.48 26.7281 176.321 26.7384C175.083 26.8101 173.964 27.806 172.989 29.0417Z" fill="black"/>
<path d="M111.185 36C111.185 39.046 108.798 41.5152 105.854 41.5152C102.91 41.5152 100.523 39.046 100.523 36C100.523 32.9541 102.91 30.4849 105.854 30.4849C108.798 30.4849 111.185 32.9541 111.185 36Z" fill="black"/>
</svg>
