<svg width="198" height="72" viewBox="0 0 198 72" fill="none" xmlns="http://www.w3.org/2000/svg">
<path fill-rule="evenodd" clip-rule="evenodd" d="M49.4093 49.0288V14.6016H67.4256V18.9175H53.1401V29.5021H65.9696V33.8191H53.1401V44.6095H68.4267V48.9254H49.4093V49.0288ZM87.3529 49.0288L81.1651 39.8833L74.9772 49.0288H70.6113L79.0727 36.7995L70.1553 24.1586H75.0695L81.1651 33.6146L87.3529 24.1586H92.1748L83.7134 36.7995L91.721 49.0288H87.3529ZM97.7264 45.329V62.2857H93.9957V36.9018C93.9957 30.4273 98.3627 23.5426 105.188 23.5426C112.102 23.5426 117.289 28.4757 117.289 36.5937C117.289 44.5072 112.012 49.9541 106.007 49.9541C103.094 49.9541 99.1824 48.5151 97.7264 45.329ZM113.377 36.5937C113.377 31.0446 110.192 27.7574 104.551 28.0642C101.821 28.1677 97.6362 30.4273 97.9989 38.342C98.0901 40.9108 100.456 45.7393 105.643 45.7393C110.101 45.7393 113.377 42.8624 113.377 36.5937ZM120.474 49.0288V24.1586H124.205V26.8309C126.025 24.4667 128.845 23.6449 131.848 23.6449V28.1677C131.393 28.0642 126.934 27.447 124.205 34.0249V49.1323H120.474V49.0288ZM132.849 36.5949C132.849 29.3998 137.398 23.5426 143.676 23.5426C151.503 23.5426 154.414 29.401 154.414 36.9018V38.958H136.944C137.216 43.6854 140.947 46.1508 144.405 46.0485C146.952 45.9462 148.682 45.1244 150.503 43.0693L152.959 45.9474C150.684 48.4128 147.772 50.0564 144.224 50.0564C137.581 49.9541 132.849 44.4049 132.849 36.5949ZM143.404 27.7574C139.856 27.7574 137.126 31.2491 136.944 35.0536H150.502C150.502 31.3526 148.137 27.7574 143.404 27.7574ZM156.326 45.5347L159.054 42.7601C158.964 42.7601 160.42 44.4049 160.603 44.5072C161.239 45.1244 161.875 45.5347 162.695 45.7405C165.06 46.46 169.337 46.2542 169.701 42.5544C169.883 40.4993 168.518 39.3683 166.972 38.6488C164.97 37.8282 162.785 37.519 160.784 36.4915C158.508 35.3616 157.054 33.4088 157.054 30.532C157.054 23.0276 166.516 21.7955 170.793 25.2896C170.975 25.4954 173.067 27.6527 172.977 27.6527L170.247 30.1205C168.883 28.27 167.608 27.3447 164.697 27.3447C163.241 27.3447 161.239 28.0642 160.875 29.8113C160.329 32.2778 162.785 33.2031 164.423 33.7169C166.608 34.3329 168.973 34.7444 170.884 36.08C173.523 37.9305 174.161 41.9372 173.159 45.021C172.066 48.4128 168.79 49.7483 165.879 49.8494C162.422 50.0564 159.419 48.8231 156.962 46.0497C156.78 46.0497 156.326 45.5347 156.326 45.5347ZM175.524 45.5347L178.255 42.7601C178.164 42.7601 179.619 44.4049 179.801 44.5072C180.438 45.1244 181.076 45.5347 181.894 45.7405C184.258 46.46 188.537 46.2542 188.901 42.5544C189.081 40.4993 187.718 39.3683 186.17 38.6488C184.168 37.8282 181.985 37.519 179.984 36.4915C177.709 35.3616 176.253 33.4088 176.253 30.532C176.253 23.0276 185.717 21.7955 189.992 25.2896C190.175 25.4954 192.267 27.6527 192.177 27.6527L189.447 30.1205C188.081 28.27 186.807 27.3447 183.896 27.3447C182.44 27.3447 180.439 28.0642 180.074 29.8113C179.529 32.2778 181.985 33.2031 183.622 33.7169C185.807 34.3329 188.174 34.7444 190.084 36.08C192.722 37.9305 193.36 41.9372 192.358 45.021C191.266 48.4128 187.991 49.7483 185.078 49.8494C181.621 50.0564 178.619 48.8231 176.162 46.0497C175.979 46.0497 175.526 45.5347 175.526 45.5347H175.524ZM193.268 24.1586V21.4863H192.45V20.9726H194.633V21.4863H193.814V24.1586H193.268ZM197.363 24.1586V21.6933L196.544 24.1586H196.362L195.543 21.6933V24.1586H195.088V20.9726H195.817L196.544 23.1323L197.273 20.9726H198V24.1586H197.363ZM24.1129 49.0288L21.3833 40.8073H6.64277L3.91207 49.0288H0L11.8295 14.6016H16.1053L27.8447 49.0288H24.1129ZM13.8306 19.5347L8.2812 36.5949H19.8361L13.8306 19.5347ZM30.3008 49.0288H34.1227V14.6028H30.3008V49.0288ZM39.8545 49.0288H43.6764V24.6736H39.8545V49.0288ZM47.316 16.7601V16.3486C44.405 16.2464 42.038 13.5741 41.9479 10.2857H41.4017C41.3105 13.5741 38.9446 16.2464 36.0336 16.3486V16.7601C38.9446 16.8624 41.3105 19.5347 41.4017 22.8231H41.9479C42.038 19.5347 44.405 16.8624 47.316 16.7601Z" fill="black"/>
</svg>
